<svg width="100" height="100" viewBox="0 0 100 100" fill="none" xmlns="http://www.w3.org/2000/svg">
<path fill-rule="evenodd" clip-rule="evenodd" d="M10.1417 90.2146L15.7542 69.725C12.2917 63.7292 10.4708 56.925 10.4729 49.9563C10.4833 28.1542 28.225 10.4167 50.0292 10.4167C60.6104 10.4208 70.5396 14.5396 78.0083 22.0125C85.475 29.4875 89.5875 39.4208 89.5833 49.9875C89.575 71.7896 71.8292 89.5292 50.0292 89.5292C50.0271 89.5292 50.0292 89.5292 50.0292 89.5292H50.0125C43.3937 89.5271 36.8875 87.8667 31.1104 84.7146L10.1417 90.2146Z" fill="white"/>
<path fill-rule="evenodd" clip-rule="evenodd" d="M10.1416 91.2562C9.86665 91.2562 9.59998 91.1479 9.40206 90.9479C9.14165 90.6833 9.03956 90.2979 9.13748 89.9417L14.6354 69.8667C11.2271 63.8125 9.42915 56.9375 9.43331 49.9583C9.44165 27.5792 27.6521 9.375 50.0291 9.375C60.8833 9.37917 71.0812 13.6063 78.7458 21.2771C86.4104 28.95 90.6291 39.1458 90.625 49.9875C90.6166 72.3646 72.4041 90.5708 50.0291 90.5708C43.3854 90.5687 36.8125 88.9292 30.9791 85.8271L10.4062 91.2208C10.3187 91.2458 10.2312 91.2562 10.1416 91.2562Z" fill="white"/>
<path fill-rule="evenodd" clip-rule="evenodd" d="M50.0292 10.4167C60.6104 10.4208 70.5396 14.5396 78.0084 22.0125C85.475 29.4875 89.5875 39.4208 89.5834 49.9875C89.575 71.7896 71.8292 89.5292 50.0292 89.5292H50.0125C43.3938 89.5271 36.8875 87.8667 31.1104 84.7146L10.1417 90.2146L15.7542 69.725C12.2917 63.7292 10.4709 56.925 10.4729 49.9562C10.4834 28.1542 28.225 10.4167 50.0292 10.4167ZM50.0292 8.33333C27.0792 8.33333 8.40002 27.0042 8.3896 49.9562C8.38752 56.9708 10.1584 63.8833 13.5167 70.0021L8.13127 89.6667C7.93544 90.3854 8.13544 91.1521 8.66044 91.6812C9.05627 92.0812 9.59169 92.3 10.1417 92.3C10.3188 92.3 10.4959 92.2771 10.6709 92.2312L30.8521 86.9396C36.7438 89.9979 43.3479 91.6125 50.0125 91.6146C72.9792 91.6146 91.6583 72.9417 91.6688 49.9896C91.6729 38.8667 87.3459 28.4083 79.4854 20.5417C71.6209 12.6729 61.1604 8.33749 50.0292 8.33333Z" fill="#CFD8DC"/>
<path fill-rule="evenodd" clip-rule="evenodd" d="M73.2834 26.7333C67.075 20.5208 58.8229 17.0979 50.0396 17.0958C31.9063 17.0958 17.1584 31.8375 17.15 49.9583C17.1479 56.1688 18.8854 62.2146 22.1771 67.45L22.9604 68.6938L19.6375 80.8208L32.0813 77.5583L33.2834 78.2708C38.3292 81.2667 44.1167 82.85 50.0167 82.8521H50.0292C68.15 82.8521 82.8979 68.1083 82.9042 49.9854C82.9063 41.2042 79.4917 32.9458 73.2834 26.7333Z" fill="#40C351"/>
<path fill-rule="evenodd" clip-rule="evenodd" d="M40.1416 33.4271C39.4021 31.7812 38.6229 31.7479 37.9166 31.7187C37.3396 31.6937 36.6812 31.6958 36.0229 31.6958C35.3646 31.6958 34.2937 31.9437 33.3875 32.9333C32.4812 33.9229 29.9271 36.3125 29.9271 41.175C29.9271 46.0375 33.4687 50.7375 33.9625 51.3958C34.4562 52.0542 40.8 62.3521 50.8458 66.3146C59.1937 69.6062 60.8937 68.9521 62.7062 68.7875C64.5187 68.6229 68.5541 66.3979 69.3771 64.0896C70.2 61.7812 70.2 59.8042 69.9541 59.3917C69.7062 58.9792 69.0479 58.7333 68.0604 58.2375C67.0729 57.7417 62.2125 55.3521 61.3062 55.0229C60.4 54.6937 59.7416 54.5292 59.0812 55.5187C58.4229 56.5062 56.5291 58.7333 55.9521 59.3917C55.375 60.0521 54.7979 60.1354 53.8104 59.6396C52.8229 59.1437 49.6396 58.1021 45.8625 54.7354C42.925 52.1167 40.9416 48.8812 40.3646 47.8917C39.7875 46.9042 40.3021 46.3687 40.7979 45.875C41.2416 45.4312 41.7854 44.7208 42.2812 44.1437C42.775 43.5667 42.9396 43.1542 43.2687 42.4958C43.5979 41.8354 43.4333 41.2583 43.1854 40.7646C42.9416 40.2687 41.0208 35.3812 40.1416 33.4271Z" fill="white"/>
</svg>
